<svg width="33" height="33" viewBox="0 0 33 33" fill="#A8385C" xmlns="http://www.w3.org/2000/svg">
<g clip-path="url(#clip0_40_153)">
<path d="M17.3679 27.4554C18.7085 27.4554 19.7952 26.3686 19.7952 25.0281C19.7952 23.6876 18.7085 22.6008 17.3679 22.6008C16.0274 22.6008 14.9407 23.6876 14.9407 25.0281C14.9407 26.3686 16.0274 27.4554 17.3679 27.4554Z" fill="#A8385C"/>
<path d="M13.9931 26.7875L15.0129 24.3485C15.0252 24.3194 15.0366 24.287 15.0464 24.2557C15.0951 24.0985 15.1029 23.9396 15.0783 23.7877C15.1119 23.5304 15.1029 23.2633 15.0403 22.9959C14.7603 21.799 13.5637 21.0553 12.3666 21.335L7.49079 22.4745C7.37919 22.5008 7.27262 22.5374 7.16913 22.5788C6.68664 22.5352 6.21422 22.8116 6.0313 23.2862L4.83109 26.3957L1.53506 26.1403C1.17229 26.1115 0.83692 26.3571 0.76196 26.7227C0.681125 27.1182 0.936215 27.505 1.33172 27.5858L5.34854 28.4076C5.72782 28.4853 6.12164 28.3097 6.31715 27.9643L6.59098 29.0604L0.79916 28.5102C0.417645 28.475 0.0677352 28.7421 0.00871772 29.1259C-0.0530968 29.5244 0.220453 29.8973 0.618751 29.9591L7.70728 31.0522C7.80014 31.0665 7.9014 31.067 7.99929 31.0502C8.49968 30.9663 8.83729 30.4928 8.75309 29.9921L8.74275 29.9283L8.22697 26.8541C8.31927 26.8443 8.4113 26.8303 8.50332 26.8088L12.3836 25.902L12.1571 26.6334L12.1311 26.7171C12.0469 26.9914 12.1126 27.3025 12.3294 27.5198L15.1494 30.3496C15.3907 30.5898 15.782 30.6167 16.0525 30.3971C16.342 30.1622 16.3862 29.7379 16.1515 29.4481L13.9931 26.7875Z" fill="#A8385C"/>
<path d="M24.7108 7.52374C26.2534 7.52374 27.504 6.27322 27.504 4.73062C27.504 3.18802 26.2534 1.9375 24.7108 1.9375C23.1682 1.9375 21.9177 3.18802 21.9177 4.73062C21.9177 6.27322 23.1682 7.52374 24.7108 7.52374Z" fill="#A8385C"/>
<path d="M32.9643 14.5132L32.9352 14.4008L32.8868 14.2302L32.794 13.9244L32.6054 13.3323L32.2211 12.1654L31.4357 9.84441C31.3641 9.63463 31.2128 9.44919 30.9994 9.34094L30.9076 9.29423L27.8471 7.7388C27.8133 7.72201 27.7772 7.70551 27.7417 7.69153C27.6074 7.63894 27.4692 7.61433 27.333 7.61181C26.9358 7.45238 26.4939 7.38917 26.0394 7.4507C25.7575 7.48902 25.4937 7.57377 25.2523 7.69293C25.0425 7.72873 24.8403 7.82047 24.6694 7.97151L22.1115 10.2343L17.4086 11.5691C17.0285 11.6784 16.7832 12.0622 16.8578 12.4591C16.937 12.8803 17.3423 13.1578 17.7635 13.0783L22.839 12.1243C22.9512 12.1027 23.0645 12.056 23.1632 11.9844L23.2393 11.9288L23.9903 11.3833L24.5458 15.4659L20.661 15.328L20.5692 15.3246C20.2506 15.3157 19.9335 15.46 19.7335 15.7389L16.537 20.2041C16.2878 20.5543 16.3404 21.046 16.673 21.3313C17.0254 21.6336 17.5563 21.5934 17.8583 21.2409L21.033 17.5405L25.852 18.061L24.9396 19.8877L24.9007 19.9649C24.7637 20.2443 24.7558 20.5825 24.9094 20.8798L28.1333 27.129C28.3341 27.5152 28.8029 27.6901 29.2098 27.5164C29.6369 27.3346 29.8353 26.8406 29.6534 26.4138L29.6512 26.4085L27.1288 20.4952L29.4294 16.6253C29.4448 16.5995 29.4604 16.5702 29.4742 16.5433C29.5762 16.338 29.6179 16.1184 29.607 15.9047C29.6736 15.613 29.6926 15.3051 29.6495 14.991L29.0728 10.7523L29.7399 11.0127L30.5527 12.8135L31.0433 13.923L31.2799 14.4741L31.3912 14.7429L31.4388 14.8617L31.4497 14.8903L31.4556 14.9045L31.4587 14.9118L31.4536 14.895C31.4424 14.8497 31.4413 14.7996 31.4505 14.7535C31.4366 15.1814 31.7719 15.5397 32.2004 15.5534C32.6287 15.5671 32.9867 15.2315 33.0001 14.8036C32.9987 14.7079 32.9867 14.608 32.9643 14.5132Z" fill="#A8385C"/>
<path d="M13.4673 20.3549L13.4734 20.1748L11.6156 20.1228L12.4973 19.2699L11.6663 18.5581L12.9062 18.2423L12.8195 17.0706L13.8242 18.4171L14.4627 16.9302L14.8037 18.4784L16.0677 18.1223L15.6945 19.5236L15.8682 19.5701L16.3225 17.8639L14.9385 18.254L14.5184 16.3462L13.7814 18.0605L12.5952 16.4693L12.7157 18.1058L11.2864 18.4691L12.2304 19.2783L11.1843 20.29L13.4673 20.3549Z" fill="#A8385C"/>
<path d="M20.5354 27.3897L19.533 26.915L20.4339 27.5617L20.5354 27.3897Z" fill="#A8385C"/>
<path d="M19.0474 27.8168L19.1604 27.1208L18.8569 27.7572L19.0474 27.8168Z" fill="#A8385C"/>
<path d="M20.6309 29.0438C20.4737 29.003 20.2715 29.0092 20.1266 29.0511C19.8229 29.0391 19.4458 28.9904 19.1183 29.0567L19.2044 29.0232C19.1779 29.0335 19.1488 29.0447 19.1183 29.0567C18.866 29.1079 18.6428 29.2265 18.5052 29.4819C18.6408 29.4819 18.7318 29.6175 18.8668 29.5722C18.7318 29.6626 18.5052 29.6175 18.3701 29.7079C18.1894 29.7979 18.0985 30.0242 18.3248 30.1143C19.0928 30.3859 20.0878 30.3406 20.6301 29.6175C20.5848 29.6175 20.5848 29.5722 20.5395 29.5722C20.6749 29.5722 20.7658 29.4366 20.8558 29.3462C20.9456 29.1655 20.7193 29.1208 20.6309 29.0438Z" fill="#A8385C"/>
<path d="M18.2477 28.8072C18.2097 28.8089 18.1826 28.7722 18.1451 28.787C18.182 28.7596 18.2458 28.7697 18.283 28.7417C18.3322 28.7138 18.3543 28.6492 18.2894 28.6271C18.0704 28.5622 17.7918 28.5887 17.6497 28.7991C17.6623 28.7985 17.6631 28.8111 17.676 28.8105C17.6377 28.8125 17.6142 28.8514 17.5901 28.8782C17.5678 28.9305 17.6313 28.94 17.6573 28.9602C17.702 28.9694 17.7585 28.9649 17.7988 28.951C17.9498 28.9493 18.1675 28.9761 18.2477 28.8072Z" fill="#A8385C"/>
</g>
<defs>
<clipPath id="clip0_40_153">
<rect width="33" height="33" fill="white"/>
</clipPath>
</defs>
</svg>
